<svg width="16" height="10" viewBox="0 0 16 10" fill="none" xmlns="http://www.w3.org/2000/svg">
<path d="M15.9023 5.22094L10.9023 9.90844C10.7721 10.0305 10.5612 10.0305 10.431 9.90844C10.3008 9.78636 10.3008 9.58861 10.431 9.46655L14.862 5.31249H0.333344C0.149094 5.31249 0 5.17272 0 4.99998C0 4.82725 0.149094 4.68747 0.333344 4.68747H14.862L10.431 0.533437C10.3008 0.411357 10.3008 0.213604 10.431 0.0915527C10.4961 0.0305271 10.5814 0 10.6667 0C10.752 0 10.8372 0.0305271 10.9024 0.0915527L15.9024 4.77905C16.0326 4.9011 16.0326 5.09886 15.9023 5.22094Z" fill="#2B2C34" fill-opacity="0.5"/>
</svg>
