<svg width="100" height="100" viewBox="0 0 100 100" fill="none" xmlns="http://www.w3.org/2000/svg">
<path d="M0 93.3547L1.32418 96.2726L48.8411 76.9848L57.1193 77.9574L60.0991 86.8716L56.1258 90.5999C54.6358 91.8962 54.1395 94.0028 54.9673 95.9481L56.6229 100L84.1058 89.465L82.6159 85.5753C81.9538 83.6301 80.1324 82.496 77.9804 82.496H72.5163L69.5365 75.5263L76.8212 71.9611C79.1389 70.8262 80.1324 68.2328 79.3046 65.9639L69.868 41.1665C68.8744 38.5731 66.0595 37.4383 63.4104 38.2487C63.4104 38.2487 63.2455 38.2487 63.2455 38.4109L56.2915 41.328L55.2979 38.8968L59.1064 34.5212C61.7547 31.6034 63.4104 28.0382 63.9075 24.1485L68.7087 18.4758C71.8543 14.9098 71.1922 9.56158 67.5495 6.4815C66.8874 5.99558 66.2253 5.50967 65.5632 5.1852C63.7418 4.37482 61.9205 4.21258 59.9342 4.69929L59.437 3.23996C58.6092 0.647372 55.6294 -0.649715 53.1459 0.322902L18.212 12.6409C15.5628 13.6135 14.2386 16.3683 15.2321 18.7995V18.9617L16.06 21.0684C11.7551 23.0136 9.76807 27.8759 11.258 32.0901C12.4172 35.3316 15.3971 37.6005 18.874 38.0864L26.6558 38.8968C29.8014 41.1665 33.609 42.625 37.4174 42.9487L42.8807 43.4354L43.8742 45.8666C42.715 46.5147 41.8872 47.6496 41.5565 49.1081L40.3973 54.6186L0 70.664L1.15927 73.7433L24.3381 64.6676L29.9671 81.199L0 93.3547ZM79.3046 86.548L79.636 87.5198L58.4435 95.7859L57.9471 94.8132C57.7814 94.1651 57.9471 93.5169 58.2786 93.031L63.9075 87.8443L71.0264 85.5753H77.649C78.4768 85.5753 78.974 85.899 79.3046 86.548ZM68.8744 82.6575L62.914 84.6027L60.762 78.4441C61.7547 78.6056 62.5826 78.4441 63.4104 77.9574L66.2253 76.6611L68.8744 82.6575ZM64.4039 40.842C65.2317 40.5176 66.2253 40.842 66.5567 41.6524L67.8809 45.0562L59.7685 47.6496L60.762 50.7289L68.8744 48.1355L70.8607 53.3223L63.0797 55.9148L64.0733 58.9949L72.02 56.4016L74.0071 61.5875L66.391 64.0187L67.3845 67.0988L75.1655 64.5054L75.9933 66.6121C76.3248 67.4224 75.9933 68.2328 75.1655 68.5573L62.0862 74.8781C61.7547 75.0404 61.4241 75.0404 61.0927 75.0404L49.8347 73.7433L43.7085 55.7534L44.8678 49.7563C45.0335 49.2703 45.3641 48.7836 45.8613 48.6214L64.4039 40.842ZM64.2382 8.10226C66.8874 9.23711 68.2124 12.3164 67.0531 15.072C66.8874 15.5579 66.5567 15.8824 66.2253 16.3683L64.2382 18.7995C64.0733 17.1787 63.7418 15.7202 63.2455 14.0994L61.0927 7.77858C62.2519 7.61635 63.2455 7.77858 64.2382 8.10226ZM14.5692 31.2797C13.5765 28.5241 14.735 25.607 17.3841 24.3099L19.7019 29.8212C20.5297 31.7656 21.6889 33.7108 23.0131 35.3316L19.5361 35.0071C17.2184 34.8449 15.2321 33.3864 14.5692 31.2797ZM38.0795 39.8694C31.2913 39.2213 25.3308 35.0071 22.8474 28.6863L18.5434 17.9891C18.212 17.1787 18.5434 16.2061 19.3712 15.8824L54.3044 3.56443C54.8016 3.4022 55.1322 3.4022 55.6294 3.56443C55.96 3.72667 56.2915 4.05035 56.4572 4.53705L60.0991 15.2343C62.0862 21.2306 60.762 27.7137 56.6229 32.4137L51.4903 38.2487L52.9802 42.1383L47.0198 44.5695L45.3642 40.5176L38.0795 39.8694ZM27.4836 63.3705L31.2913 61.912L35.4304 74.23L38.5759 73.2574L34.2719 60.6157L40.8944 58.0223L46.5234 74.3922L33.1126 79.9027L27.4836 63.3705Z" fill="#285BD4"/>
<path d="M81.788 28.3619V29.9827H85.0993V28.3619C85.0993 23.8241 88.742 20.2581 93.3775 20.2581V17.0166C88.742 17.0166 85.0993 13.4514 85.0993 8.91276V7.29199H81.788V8.91276C81.788 13.4514 78.1461 17.0166 73.5099 17.0166V20.2581C78.1461 20.2581 81.788 23.8241 81.788 28.3619ZM83.4437 14.7477C84.4372 16.3684 85.7614 17.6655 87.417 18.6374C85.7614 19.61 84.4372 20.9071 83.4437 22.5278C82.4501 20.9071 81.126 19.61 79.4703 18.6374C81.126 17.6655 82.4501 16.3684 83.4437 14.7477Z" fill="#285BD4"/>
<path d="M8.94024 60.7772V62.398H12.2515V60.7772C12.2515 56.2394 15.8942 52.6734 20.5297 52.6734V49.4319C15.8942 49.4319 12.2515 45.8667 12.2515 41.328V39.7073H8.94024V41.328C8.94024 45.8667 5.29833 49.4319 0.662079 49.4319V52.6734C5.29833 52.6734 8.94024 56.2394 8.94024 60.7772ZM10.5959 47.163C11.5894 48.7837 12.9136 50.0808 14.5692 51.0526C12.9136 52.0253 11.5894 53.3223 10.5959 54.9431C9.60233 53.3223 8.27815 52.0253 6.62252 51.0526C8.27815 50.0808 9.60233 48.7837 10.5959 47.163Z" fill="#285BD4"/>
<path d="M91.7218 41.328V39.7073H88.4106V41.328C88.4106 45.8667 84.7687 49.4319 80.1324 49.4319V52.6734C84.7687 52.6734 88.4106 56.2394 88.4106 60.7772V62.398H91.7218V60.7772C91.7218 56.2394 95.3646 52.6734 100 52.6734V49.4319C95.3646 49.4319 91.7218 45.8667 91.7218 41.328ZM90.0662 54.9431C89.0727 53.3223 87.7485 52.0253 86.0929 51.0526C87.7485 50.0808 89.0727 48.7837 90.0662 47.163C91.0597 48.7837 92.3839 50.0808 94.0396 51.0526C92.3839 52.0253 91.0597 53.3223 90.0662 54.9431Z" fill="#285BD4"/>
<path d="M49.1726 28.8486L51.4903 31.1175C60.5963 22.2033 52.1524 8.589 51.656 8.10229L48.8411 9.8853C49.0069 9.8853 56.4572 21.7174 49.1726 28.8486Z" fill="#285BD4"/>
</svg>
