<svg width="12" height="8" viewBox="0 0 12 8" fill="none" xmlns="http://www.w3.org/2000/svg">
<path d="M11.7567 8.00029H0.248696C0.184132 8.00039 0.122183 7.9764 0.0765292 7.93362C0.0308753 7.89084 0.00527152 7.83279 0.00537138 7.77229V0.23216C0.00527152 0.171659 0.0308753 0.11361 0.0765292 0.0708296C0.122183 0.0280493 0.184132 0.00405708 0.248696 0.00415066H11.7567C11.8212 0.00405708 11.8832 0.0280493 11.9288 0.0708296C11.9745 0.11361 12.0001 0.171659 12 0.23216V7.77264C12 7.83308 11.9743 7.89104 11.9287 7.93374C11.8831 7.97644 11.8212 8.00039 11.7567 8.00029ZM0.491645 7.54287H11.5133V0.459816H0.49202L0.491645 7.54287Z" fill="black"/>
<path d="M6.00247 3.97712C5.70266 3.97738 5.40998 3.89141 5.16398 3.73081L0.109365 0.418353C0.0354952 0.372703 -0.00610455 0.293073 0.000728871 0.210402C0.00756229 0.127732 0.0617516 0.0550545 0.142242 0.0206078C0.222733 -0.0138389 0.316835 -0.00462412 0.387987 0.0446719L5.4426 3.35678C5.77914 3.57615 6.2258 3.57615 6.56234 3.35678L11.6177 0.0446719C11.7277 -0.0224951 11.8746 0.00414407 11.9499 0.104883C12.0252 0.205621 12.0017 0.344155 11.8967 0.418001L6.84134 3.73046C6.59528 3.89125 6.30246 3.97735 6.00247 3.97712Z" fill="black"/>
<path d="M11.757 7.89551C11.6943 7.89557 11.634 7.87287 11.5888 7.83218L6.8004 3.53485C6.70335 3.4474 6.70032 3.30278 6.79365 3.21183C6.88697 3.12089 7.0413 3.11805 7.13835 3.2055L11.9252 7.50424C11.997 7.56864 12.0198 7.66745 11.9827 7.75386C11.9457 7.84026 11.8564 7.89689 11.757 7.89692V7.89551Z" fill="black"/>
<path d="M0.248546 7.8955C0.149862 7.89488 0.0613496 7.83848 0.0244718 7.7527C-0.012406 7.66693 0.00965541 7.56877 0.0803212 7.50423L4.86946 3.20513C4.96651 3.11768 5.12084 3.12052 5.21417 3.21147C5.30749 3.30241 5.30446 3.44703 5.20741 3.53448L0.41677 7.83252C0.371479 7.87308 0.311196 7.89565 0.248546 7.8955Z" fill="black"/>
</svg>
