<svg width="100" height="100" viewBox="0 0 100 100" fill="none" xmlns="http://www.w3.org/2000/svg">
<path d="M89.6552 11.6702H68.7931C64.0515 1.64201 51.7976 -2.77177 41.4233 1.81138C36.9084 3.80609 33.2877 7.30595 31.2241 11.6702H10.3448C4.63384 11.6756 0.00560345 16.1494 0 21.6698V73.3344C0.00560345 78.8548 4.63384 83.3286 10.3448 83.334H37.2655L34.9638 90.0004H15.5172C12.6606 90.0004 10.3448 92.2388 10.3448 95.0002C10.3448 97.7615 12.6606 100 15.5172 100H84.4828C87.3394 100 89.6552 97.7615 89.6552 95.0002C89.6552 92.2388 87.3394 90.0004 84.4828 90.0004H65.0362L62.7345 83.334H89.6552C95.3662 83.3286 99.9944 78.8548 100 73.3344V21.6698C99.9942 16.1496 95.3659 11.6758 89.6552 11.6702ZM50 3.33715C59.5222 3.33715 67.2414 10.7987 67.2414 20.0032C67.2414 29.2076 59.5222 36.6692 50 36.6692C40.4778 36.6692 32.7586 29.2076 32.7586 20.0032C32.769 10.8031 40.4821 3.34736 50 3.33715ZM84.4828 93.3336C85.4349 93.3336 86.2069 94.0798 86.2069 95.0002C86.2069 95.9206 85.4349 96.6668 84.4828 96.6668H15.5172C14.5651 96.6668 13.7931 95.9206 13.7931 95.0002C13.7931 94.0798 14.5651 93.3336 15.5172 93.3336H84.4828ZM38.6 90.0004L40.9017 83.334H59.0983L61.3966 90.0004H38.6ZM96.5517 73.3344C96.5517 77.0161 93.464 80.0008 89.6552 80.0008H10.3448C6.53599 80.0008 3.44828 77.0161 3.44828 73.3344V70.0012H96.5517V73.3344ZM96.5517 66.668H3.44828V21.6698C3.44828 17.988 6.53599 15.0034 10.3448 15.0034H30C28.4955 20.4821 29.5002 26.3214 32.7586 31.0344V42.1339L25.4517 44.4889C24.1847 41.0392 20.2647 39.2355 16.6959 40.4603C13.1272 41.685 11.2612 45.4742 12.5282 48.9239C13.7953 52.3735 17.7153 54.1772 21.284 52.9525C23.5922 52.1604 25.2879 50.2384 25.7328 47.9104L35.0276 44.9105C35.7295 44.6845 36.2041 44.0507 36.2069 43.3356V34.8676C38.667 37.0071 41.6239 38.5424 44.8276 39.3441V49.1103L41.7241 51.1103C38.4802 48.9726 34.0578 49.7818 31.8463 52.9175C29.6349 56.0532 30.472 60.328 33.7159 62.4656C36.9599 64.6033 41.3823 63.7939 43.5938 60.6584C45.0657 58.5712 45.2343 55.8717 44.0325 53.6285L47.5084 51.3886C47.9879 51.0794 48.2756 50.559 48.2756 50.002V39.9174C48.8463 39.964 49.417 40.0024 49.9998 40.0024C50.5825 40.0024 51.1532 39.964 51.7239 39.9174V46.6688C51.7239 47.2258 52.0116 47.7462 52.4912 48.0554L55.967 50.2953C55.4519 51.2317 55.1793 52.2748 55.1722 53.3352C55.1606 57.0279 58.2483 60.0305 62.0685 60.0418C65.8888 60.053 68.995 57.0684 69.0067 53.3756C69.0183 49.6828 65.9306 46.6802 62.1103 46.669C60.747 46.665 59.4129 47.0504 58.2756 47.7771L55.1722 45.7771V39.3441C58.3759 38.5424 61.3328 37.0071 63.7929 34.8676V41.669C63.7927 42.3006 64.1618 42.8783 64.7463 43.1606L74.2515 47.7537C74.8812 51.3755 78.4291 53.8181 82.1759 53.2093C85.9226 52.6006 88.4496 49.1712 87.8198 45.5494C87.1901 41.9277 83.6422 39.4851 79.8955 40.0938C77.5166 40.4803 75.5209 42.0429 74.636 44.2122L67.2412 40.639V31.0344C70.5024 26.3229 71.5106 20.4831 70.0084 15.0034H89.655C93.4638 15.0034 96.5515 17.988 96.5515 21.6698V66.668H96.5517ZM22.4138 46.6688C22.4138 48.5097 20.87 50.002 18.9655 50.002C17.061 50.002 15.5172 48.5097 15.5172 46.6688C15.5172 44.8278 17.061 43.3356 18.9655 43.3356C20.87 43.3356 22.4138 44.828 22.4138 46.6688ZM41.3793 56.6684C41.3793 58.5093 39.8356 60.0016 37.931 60.0016C36.0265 60.0016 34.4828 58.5093 34.4828 56.6684C34.4828 54.8274 36.0265 53.3352 37.931 53.3352C39.8356 53.3352 41.3793 54.8276 41.3793 56.6684ZM58.6207 53.3352C58.6207 51.4942 60.1644 50.002 62.069 50.002C63.9735 50.002 65.5172 51.4942 65.5172 53.3352C65.5172 55.1761 63.9735 56.6684 62.069 56.6684C60.1644 56.6684 58.6207 55.1761 58.6207 53.3352ZM77.5862 46.6688C77.5862 44.8278 79.13 43.3356 81.0345 43.3356C82.939 43.3356 84.4828 44.8278 84.4828 46.6688C84.4828 48.5097 82.939 50.002 81.0345 50.002C79.13 50.002 77.5862 48.5097 77.5862 46.6688Z" fill="#285BD4"/>
<path d="M51.7242 75.3345H48.2759V78.6677H51.7242V75.3345Z" fill="#285BD4"/>
<path d="M51.219 9.1586C50.5457 8.508 49.4543 8.508 48.7811 9.1586L41.8845 15.825L44.3225 18.1816L48.2759 14.3601V25.3363H51.7242V14.3601L55.6776 18.1816L58.1156 15.825L51.219 9.1586Z" fill="#285BD4"/>
<path d="M56.8965 25.3364V28.6696H43.1034V25.3364H39.6552V30.3362C39.6552 31.2566 40.4271 32.0028 41.3793 32.0028H58.6207C59.5728 32.0028 60.3448 31.2566 60.3448 30.3362V25.3364H56.8965Z" fill="#285BD4"/>
<path d="M24.138 28.6697H8.62073V32.0029H24.138V28.6697Z" fill="#285BD4"/>
<path d="M18.9656 35.3359H8.62073V38.6691H18.9656V35.3359Z" fill="#285BD4"/>
<path d="M24.1379 22.0032H15.5172V25.3364H24.1379V22.0032Z" fill="#285BD4"/>
<path d="M12.069 22.0032H8.62073V25.3364H12.069V22.0032Z" fill="#285BD4"/>
<path d="M12.069 60.335H8.62073V63.6682H12.069V60.335Z" fill="#285BD4"/>
<path d="M18.9655 60.335H15.5172V63.6682H18.9655V60.335Z" fill="#285BD4"/>
<path d="M25.8621 60.335H22.4138V63.6682H25.8621V60.335Z" fill="#285BD4"/>
<path d="M91.3793 60.335H87.931V63.6682H91.3793V60.335Z" fill="#285BD4"/>
<path d="M84.4827 60.335H81.0344V63.6682H84.4827V60.335Z" fill="#285BD4"/>
<path d="M77.5862 60.335H74.1379V63.6682H77.5862V60.335Z" fill="#285BD4"/>
<path d="M91.3793 28.6697H75.8621V32.0029H91.3793V28.6697Z" fill="#285BD4"/>
<path d="M86.2069 35.3359H75.8621V38.6691H86.2069V35.3359Z" fill="#285BD4"/>
<path d="M91.3794 22.0032H82.7587V25.3364H91.3794V22.0032Z" fill="#285BD4"/>
<path d="M79.3103 22.0032H75.8621V25.3364H79.3103V22.0032Z" fill="#285BD4"/>
</svg>
