<svg width="50" height="50" viewBox="0 0 50 50" fill="none" xmlns="http://www.w3.org/2000/svg">
<path d="M49.2676 39.1797C49.668 39.1797 50 38.8477 50 38.4473V37.3242C50 35.3027 48.7109 33.5156 46.7871 32.8809L42.207 31.377V29.7949C43.7988 28.8379 44.873 27.0898 44.873 25.1074V21.9531C44.873 18.9355 42.4219 16.4844 39.4043 16.4844C37.627 16.4844 36.0449 17.334 35.0488 18.6523C34.4922 17.6172 33.5547 16.8066 32.3828 16.416L27.8027 14.9121V13.3301C29.3945 12.373 30.4688 10.625 30.4688 8.64258V5.46875C30.4688 2.45117 28.0176 0 25 0C21.9824 0 19.5312 2.45117 19.5312 5.46875V8.62305C19.5312 10.6152 20.6055 12.3535 22.1973 13.3105V14.8926L17.6172 16.4062C16.4453 16.7969 15.5078 17.5977 14.9512 18.6426C13.9551 17.3242 12.373 16.4746 10.5957 16.4746C7.57812 16.4746 5.12695 18.9258 5.12695 21.9434V25.0977C5.12695 27.0898 6.20117 28.8281 7.79297 29.7852V31.3672L3.21289 32.8711C1.28906 33.5156 0 35.3027 0 37.3242V38.4473C0 38.8477 0.332031 39.1797 0.732422 39.1797C1.13281 39.1797 1.46484 38.8477 1.46484 38.4473V37.3242C1.46484 35.9375 2.35352 34.707 3.67187 34.2676L7.95898 32.8613C8.34961 33.9355 9.38477 34.707 10.5957 34.707C11.8066 34.707 12.8418 33.9355 13.2324 32.8613L17.5195 34.2676C18.457 34.5801 19.1895 35.293 19.5215 36.1914L17.6172 36.8164C15.6934 37.4512 14.4043 39.2383 14.4043 41.2598V42.1094H5.60547V40.2734C5.60547 39.873 5.27344 39.541 4.87305 39.541C4.47266 39.541 4.14062 39.873 4.14062 40.2734V42.1094H1.46484V38.252C1.46484 37.8516 1.07422 38.4766 0.664062 38.4766C0.253906 38.4766 0 38.0469 0 38.4473V42.8516C0 43.252 0.332031 43.584 0.732422 43.584H14.4043V49.2676C14.4043 49.668 14.7363 50 15.1367 50H34.8633C35.2637 50 35.5957 49.668 35.5957 49.2676V44.6094C35.5957 44.209 35.2637 44.7363 34.8633 44.7363C34.4629 44.7363 34.1309 44.1504 34.1309 44.5605V48.5449H31.4551V44.248C31.4551 43.8477 31.123 43.5156 30.7227 43.5156C30.3223 43.5156 29.9902 43.8477 29.9902 44.248V48.5449H20.0098V44.248C20.0098 43.8477 19.6777 43.5156 19.2773 43.5156C18.877 43.5156 18.5449 43.8477 18.5449 44.248V48.5449H15.8691V41.2793C15.8691 39.8926 16.7578 38.6621 18.0762 38.2227L22.3633 36.8066C22.7539 37.8809 23.7891 38.6523 25 38.6523C26.2109 38.6523 27.2461 37.8809 27.6367 36.8066L31.9238 38.2227C33.2422 38.6621 34.1309 39.8828 34.1309 41.2793V44.873C34.1309 45.2734 34.4629 45.6055 34.8633 45.6055C35.2637 45.6055 35.5957 45.2734 35.5957 44.873V43.5938H49.2676C49.668 43.5938 50 43.2617 50 42.8613V38.3496C50 37.9492 49.668 38.4766 49.2676 38.4766C48.8672 38.4766 48.5352 37.7832 48.5352 38.1836V42.1387H45.8594V40.3027C45.8594 39.9023 45.5273 39.5703 45.127 39.5703C44.7266 39.5703 44.3945 39.9023 44.3945 40.3027V42.1387H35.5957V41.2891C35.5957 39.2676 34.3066 37.4805 32.3828 36.8457L30.4785 36.2207C30.8105 35.3125 31.543 34.5996 32.4805 34.2969L36.7676 32.8906C37.1582 33.9648 38.1934 34.7363 39.4043 34.7363C40.6152 34.7363 41.6504 33.9648 42.041 32.8906L46.3281 34.2969C47.6465 34.7363 48.5352 35.957 48.5352 37.3535V38.4766C48.5352 38.8574 48.8672 39.1797 49.2676 39.1797ZM39.4043 17.9395C41.6113 17.9395 43.4082 19.7363 43.4082 21.9434V25.0977C43.4082 27.3047 41.6113 29.1016 39.4043 29.1016C37.1973 29.1016 35.4004 27.3047 35.4004 25.0977V21.9434C35.4004 19.7363 37.1973 17.9395 39.4043 17.9395ZM20.9961 8.62305V5.46875C20.9961 3.26172 22.793 1.46484 25 1.46484C27.207 1.46484 29.0039 3.26172 29.0039 5.46875V8.62305C29.0039 10.8301 27.207 12.627 25 12.627C22.793 12.627 20.9961 10.8301 20.9961 8.62305ZM25 14.0918C25.459 14.0918 25.9082 14.0332 26.3379 13.9258V15.4102C26.3379 15.4199 26.3379 15.4199 26.3379 15.4297C26.3379 16.1719 25.7324 16.7676 25 16.7676C24.2676 16.7676 23.6621 16.1719 23.6621 15.4297C23.6621 15.4199 23.6621 15.4199 23.6621 15.4102V13.9258C24.0918 14.0332 24.541 14.0918 25 14.0918ZM18.0762 17.8027L22.3633 16.3867C22.7539 17.4609 23.7891 18.2324 25 18.2324C26.2109 18.2324 27.2461 17.4609 27.6367 16.3867L31.9238 17.8027C33.1445 18.2031 33.9941 19.2773 34.1113 20.5469C33.9941 20.9961 33.9258 21.4551 33.9258 21.9434V25.0977C33.9258 25.2832 33.9355 25.4688 33.9551 25.6445H30.4492C30.3223 22.7441 27.9199 20.4199 24.9902 20.4199C22.0605 20.4199 19.6582 22.7441 19.5312 25.6445H16.0254C16.0449 25.459 16.0547 25.2832 16.0547 25.0977V21.9434C16.0547 21.4648 15.9961 20.9961 15.8691 20.5469C16.0059 19.2773 16.8555 18.2031 18.0762 17.8027ZM25 33.0469C22.793 33.0469 20.9961 31.25 20.9961 29.043V25.8887C20.9961 23.6816 22.793 21.8848 25 21.8848C27.207 21.8848 29.0039 23.6816 29.0039 25.8887V29.043C29.0039 31.25 27.207 33.0469 25 33.0469ZM6.5918 25.0977V21.9434C6.5918 19.7363 8.38867 17.9395 10.5957 17.9395C12.8027 17.9395 14.5996 19.7363 14.5996 21.9434V25.0977C14.5996 27.3047 12.8027 29.1016 10.5957 29.1016C8.38867 29.1016 6.5918 27.3047 6.5918 25.0977ZM11.9336 31.9043C11.9336 32.6465 11.3281 33.2422 10.5957 33.2422C9.86328 33.2422 9.25781 32.6367 9.25781 31.9043V30.4004C9.6875 30.5078 10.1367 30.5664 10.5957 30.5664C11.0547 30.5664 11.5039 30.5078 11.9336 30.4004V31.9043ZM17.9785 32.8809L13.3984 31.377V29.7949C14.4238 29.1797 15.2246 28.2422 15.6738 27.1191H19.5312V29.0527C19.5312 31.0449 20.6055 32.7832 22.1973 33.7402V35.3223L20.918 35.7422C20.4395 34.4043 19.3652 33.3398 17.9785 32.8809ZM25 37.1875C24.2578 37.1875 23.6621 36.582 23.6621 35.8496V35.8398V34.3457C24.0918 34.4531 24.541 34.5117 25 34.5117C25.459 34.5117 25.9082 34.4531 26.3379 34.3457V35.8398V35.8496C26.3379 36.5918 25.7422 37.1875 25 37.1875ZM32.0215 32.8809C30.6348 33.3398 29.5605 34.4043 29.082 35.7422L27.8027 35.3223V33.7402C29.3945 32.7832 30.4688 31.0352 30.4688 29.0527V27.1191H34.3262C34.7754 28.2422 35.5762 29.1797 36.6016 29.7949V31.377L32.0215 32.8809ZM39.4043 33.2422C38.6621 33.2422 38.0664 32.6367 38.0664 31.9043V30.4004C38.4961 30.5078 38.9453 30.5664 39.4043 30.5664C39.8633 30.5664 40.3125 30.5078 40.7422 30.4004V31.9043C40.7422 32.6465 40.1367 33.2422 39.4043 33.2422Z" fill="#285BD4"/>
</svg>
