<svg width="20" height="20" viewBox="0 0 20 20" fill="none" xmlns="http://www.w3.org/2000/svg">
<path fill-rule="evenodd" clip-rule="evenodd" d="M13.0903 7.526V7.524C13.2577 7.524 13.4253 7.52733 13.593 7.52333C13.8083 7.518 13.9837 7.33333 13.9837 7.11767C13.9837 6.79667 13.9837 6.47533 13.9837 6.15433C13.9837 5.924 13.8013 5.741 13.5717 5.74067C13.2513 5.74067 12.931 5.74033 12.6107 5.74067C12.3813 5.741 12.1987 5.92467 12.1987 6.155C12.1983 6.47333 12.1973 6.79167 12.1997 7.11C12.2 7.15767 12.209 7.207 12.224 7.252C12.2817 7.42133 12.437 7.52533 12.627 7.52633C12.7813 7.52633 12.936 7.526 13.0903 7.526ZM10 7.939C8.872 7.93833 7.955 8.846 7.93933 9.96867C7.923 11.122 8.846 12.0357 9.95267 12.0593C11.104 12.084 12.0353 11.164 12.0597 10.045C12.0847 8.89167 11.154 7.93833 10 7.939ZM6.01533 9.03867V9.066C6.01533 10.571 6.015 12.076 6.01533 13.581C6.01533 13.7973 6.20267 13.9837 6.41933 13.9837C8.806 13.984 11.1923 13.984 13.579 13.9837C13.7977 13.9837 13.984 13.798 13.984 13.5797C13.9843 12.0767 13.984 10.573 13.984 9.07033V9.039H13.0133C13.1503 9.477 13.1923 9.92267 13.1387 10.377C13.085 10.8313 12.9383 11.254 12.7 11.6447C12.4617 12.0353 12.152 12.3597 11.7737 12.6173C10.7923 13.286 9.5 13.3447 8.45833 12.76C7.932 12.465 7.51867 12.0533 7.23 11.5223C6.80033 10.7313 6.73167 9.90067 6.98367 9.03867C6.661 9.03867 6.34033 9.03867 6.01533 9.03867ZM14.0683 15.085C14.1213 15.0763 14.1743 15.0687 14.2267 15.0573C14.642 14.969 14.9813 14.6227 15.0627 14.205C15.071 14.1593 15.0777 14.114 15.085 14.0687V5.93133C15.078 5.887 15.0717 5.842 15.0633 5.79767C14.974 5.342 14.598 4.98833 14.1367 4.925C14.1173 4.92267 14.099 4.91833 14.08 4.915H5.92033C5.87133 4.924 5.82167 4.93067 5.77333 4.94167C5.32267 5.04433 4.98933 5.407 4.925 5.86367C4.92233 5.88267 4.91833 5.90167 4.91533 5.92067V14.08C4.92467 14.1313 4.932 14.1837 4.94367 14.235C5.04333 14.6757 5.41933 15.0173 5.867 15.075C5.88833 15.0777 5.91033 15.082 5.932 15.085H14.0683ZM10 20C4.47733 20 0 15.5227 0 10C0 4.477 4.47733 0 10 0C15.5227 0 20 4.477 20 10C20 15.5227 15.5227 20 10 20Z" fill="#285BD4"/>
</svg>
