<svg width="91" height="100" viewBox="0 0 91 100" fill="none" xmlns="http://www.w3.org/2000/svg">
<path d="M45.8488 39.0506V43.1139C45.8488 44.6376 47.099 45.8879 48.6228 45.8879H49.1893V53.9168L46.0637 57.0424C45.7902 57.3159 45.6339 57.687 45.6339 58.0777V61.3401C45.6339 62.141 46.2981 62.8052 47.099 62.8052C47.9 62.8052 48.5642 62.141 48.5642 61.3401V58.7029L51.6898 55.5773C51.9633 55.3038 52.1196 54.9326 52.1196 54.5419V45.8879H52.6861C54.2098 45.8879 55.46 44.6376 55.46 43.1139V39.0506C55.46 37.5269 54.2098 36.2766 52.6861 36.2766H48.6228C47.099 36.2766 45.8488 37.5073 45.8488 39.0506ZM48.7791 39.2069H52.5103V42.9381H48.7791V39.2069Z" fill="#285BD4"/>
<path d="M27.8375 34.2058C26.3137 34.2058 25.0635 35.4561 25.0635 36.9798V41.9222C25.0635 43.4459 26.3137 44.6961 27.8375 44.6961H32.7798C34.3036 44.6961 35.5538 43.4459 35.5538 41.9222V36.9798C35.5538 35.4561 34.3036 34.2058 32.7798 34.2058H27.8375ZM32.6235 41.7463H28.0133V37.1361H32.6235V41.7463Z" fill="#285BD4"/>
<path d="M31.2561 24.4773V27.4857C31.2561 29.0095 32.5064 30.2597 34.0301 30.2597H37.0385C38.5622 30.2597 39.8125 29.0095 39.8125 27.4857V24.4773C39.8125 22.9536 38.5622 21.7034 37.0385 21.7034H34.0301C32.5064 21.7034 31.2561 22.9341 31.2561 24.4773ZM34.1864 24.6336H36.8627V27.3099H34.1864V24.6336Z" fill="#285BD4"/>
<path d="M8.55636 53.1941C8.55636 51.6704 7.30611 50.4202 5.78238 50.4202H2.77398C1.25024 50.4202 0 51.6704 0 53.1941V56.2025C0 57.7263 1.25024 58.9765 2.77398 58.9765H5.78238C7.30611 58.9765 8.55636 57.7263 8.55636 56.2025V53.1941ZM5.6261 56.0267H2.9498V53.3504H5.6261V56.0267Z" fill="#285BD4"/>
<path d="M15.7648 64.5635H10.842C9.31824 64.5635 8.06799 65.8137 8.06799 67.3375V72.2603C8.06799 73.784 9.31824 75.0343 10.842 75.0343H15.7648C17.2885 75.0343 18.5388 73.784 18.5388 72.2603V67.3375C18.5388 65.8137 17.2885 64.5635 15.7648 64.5635ZM15.6085 72.0845H11.0178V67.4937H15.6085V72.0845Z" fill="#285BD4"/>
<path d="M78.3356 40.7503C78.3356 39.4023 78.3356 38.0544 78.1793 36.726C78.0816 35.9251 77.2612 35.3586 76.4602 35.4563C75.6593 35.5539 75.1514 36.1791 75.249 36.98C75.4053 38.1912 75.4053 39.5391 75.4053 40.7698C75.4053 49.0331 72.1039 56.7299 66.1066 62.4147C61.9457 66.3607 58.6247 71.264 56.3977 76.6753H54.7177V68.4705L61.2815 61.9067C61.555 61.6332 61.7112 61.2621 61.7112 60.8714V57.1793C63.0592 57.1597 64.1336 56.0658 64.1336 54.7178V51.5141C64.1336 50.1662 63.0396 49.0527 61.6722 49.0527H58.4684C57.1205 49.0527 56.007 50.1466 56.007 51.5141V54.6983C56.007 56.0462 57.101 57.1597 58.4684 57.1597H58.7614V60.2463L52.2172 66.81C51.9437 67.0835 51.7874 67.4547 51.7874 67.8454V76.6557H48.5446V67.5914C48.5446 66.7905 47.8804 66.1263 47.0795 66.1263C46.2785 66.1263 45.6143 66.7905 45.6143 67.5914V76.6557H40.7697V58.4295H41.3362C42.8599 58.4295 44.1101 57.1793 44.1101 55.6555V51.5922C44.1101 50.0685 42.8599 48.8182 41.3362 48.8182H37.2729C35.7491 48.8182 34.4989 50.0685 34.4989 51.5922V55.6751C34.4989 57.1988 35.7491 58.449 37.2729 58.449H37.8394V76.6753H34.7333C32.9752 72.3971 25.7863 63.4109 22.6411 59.836C22.1137 59.2304 23.1881 60.8909 22.5825 61.4184C21.9769 61.9458 19.5155 60.6956 20.0625 61.3012C22.8365 64.4463 30.1426 73.3934 31.764 77.1246C30.0449 77.9255 28.8728 79.6641 28.8728 81.6762C28.8728 84.3721 31.0021 86.5795 33.6589 86.7163V88.8065C33.6589 90.6624 34.8505 92.2447 36.511 92.8307C37.0971 96.8745 40.6134 100 44.8134 100H46.3371C50.5567 100 54.0535 96.8745 54.6395 92.8307C56.3 92.2447 57.4917 90.6624 57.4917 88.8065V86.7358C60.1484 86.5991 62.2778 84.3916 62.2778 81.6958C62.2778 79.6837 61.0861 77.945 59.367 77.1246C61.4182 72.358 64.4071 68.0212 68.0992 64.5244C74.7021 58.2732 78.3356 49.8341 78.3356 40.7503ZM58.9568 51.9829H61.2033V54.2295H58.9568V51.9829ZM37.4292 51.768H41.1604V55.4992H37.4292V51.768ZM46.3176 97.0894H44.7939C42.2934 97.0894 40.1641 95.3898 39.5194 93.0847H51.5921C50.9474 95.3898 48.8376 97.0894 46.3176 97.0894ZM57.2377 83.8055H52.4126C51.6116 83.8055 50.9474 84.4697 50.9474 85.2707C50.9474 86.0716 51.6116 86.7358 52.4126 86.7358H54.5614V88.8261C54.5614 89.5684 53.9558 90.1544 53.233 90.1544H37.9175C37.1752 90.1544 36.5891 89.5489 36.5891 88.8261V86.7358H46.1613C46.9623 86.7358 47.6265 86.0716 47.6265 85.2707C47.6265 84.4697 46.9623 83.8055 46.1613 83.8055H33.8933C32.7407 83.8055 31.7835 82.8679 31.7835 81.6958C31.7835 80.5823 32.6431 79.6641 33.737 79.6055C33.7566 79.6055 33.7761 79.6055 33.7956 79.6055C33.8347 79.6055 33.8542 79.6055 33.8933 79.6055H57.2182H57.1986C57.2377 79.6055 57.2572 79.6055 57.2963 79.6055C57.3159 79.6055 57.3354 79.6055 57.3549 79.6055C58.4489 79.6837 59.328 80.5823 59.328 81.6958C59.3475 82.8679 58.4098 83.8055 57.2377 83.8055Z" fill="#285BD4"/>
<path d="M15.7257 40.75C15.7257 34.4597 17.6792 28.4429 21.3518 23.3442C21.8206 22.68 21.6839 21.7619 21.0197 21.2931C20.3555 20.8242 19.4373 20.961 18.9685 21.6252C14.9247 27.2317 12.7759 33.8541 12.7759 40.75C12.7759 48.6421 15.628 56.2608 20.7853 62.1995C21.0783 62.5316 21.4885 62.7074 21.8988 62.7074C22.2308 62.7074 22.5825 62.5902 22.856 62.3558C23.4616 61.8283 23.5397 60.8906 23.0123 60.285C18.3238 54.8738 15.7257 47.9389 15.7257 40.75Z" fill="#285BD4"/>
<path d="M37.9175 11.8773C38.0348 11.8773 38.152 11.8577 38.2692 11.8382C40.672 11.2326 43.1334 10.92 45.6144 10.9396C47.1381 10.9396 48.6618 11.0568 50.166 11.2912C50.967 11.4084 51.7093 10.8614 51.846 10.0605C51.9828 9.25956 51.4163 8.51723 50.6153 8.38049C48.9744 8.12653 47.2944 7.98979 45.6144 7.98979C42.8795 7.97025 40.1641 8.32188 37.5464 8.98607C36.765 9.18142 36.2766 9.98236 36.4915 10.7638C36.6673 11.428 37.2729 11.8773 37.9175 11.8773Z" fill="#285BD4"/>
<path d="M20.2774 24.8877C20.3555 24.8095 20.4532 24.7118 20.5118 24.6142C21.8597 22.5434 23.4812 20.6485 25.3174 18.9685C26.4505 17.9332 24.4384 18.8709 25.7082 18.0309C26.3919 17.5815 24.8486 18.0895 24.3993 17.4057C23.95 16.7415 25.2979 15.7257 24.6337 16.175C23.2467 17.0932 24.5751 15.6866 23.3444 16.8197C21.3323 18.656 19.5546 20.7462 18.0699 23.0123C17.6206 23.696 17.816 24.5946 18.4997 25.0439C19.0467 25.4151 19.789 25.337 20.2774 24.8877Z" fill="#285BD4"/>
<path d="M49.2675 11.096C49.3847 11.135 49.5019 11.1741 49.6191 11.1936C52.061 11.5843 54.4443 12.3071 56.7299 13.3034C58.1364 13.909 59.4843 14.6318 60.7736 15.4523C61.4574 15.8821 61.6137 14.6709 62.0434 13.9676C62.4732 13.2839 62.3169 12.8541 61.6332 12.4244C60.2267 11.5257 59.4453 11.2718 57.902 10.6076C55.4015 9.51363 52.7838 8.73223 50.1075 8.30246C49.3066 8.16571 48.5642 8.71269 48.4275 9.51363C48.3103 10.1778 48.6814 10.8225 49.2675 11.096Z" fill="#285BD4"/>
<path d="M42.7623 11.0178C43.3874 10.8029 43.7195 10.256 43.6609 9.57224C43.5828 8.7713 42.8795 8.16571 42.059 8.24385C39.3632 8.49781 36.6869 9.08386 34.1082 10.002C32.5259 10.5685 32.9166 10.1974 31.4515 10.9983C30.7287 11.389 30.9826 11.7406 31.3538 12.4634C31.7445 13.1862 30.2012 15.003 30.9045 14.6318C32.2329 13.909 33.6394 13.2839 35.085 12.776C37.4097 11.936 39.8516 11.3304 42.313 11.096C42.4302 11.0764 42.5669 11.0569 42.6841 11.0178H42.7623Z" fill="#285BD4"/>
<path d="M74.1552 29.3223C74.1552 29.4395 74.1747 29.5567 74.2138 29.6739C74.8584 32.0572 75.21 34.5381 75.2491 36.9995C75.2687 38.5233 75.6007 39.9103 75.3859 41.4145C75.2686 42.2154 76.0305 40.2814 76.8315 40.3791C77.6324 40.4963 78.0622 40.594 78.1794 39.793C78.4138 38.1521 78.1989 38.6405 78.1794 36.9605C78.1403 34.2256 77.7496 31.5297 77.0463 28.912C76.8315 28.1306 76.0305 27.6618 75.2491 27.8767C74.5849 28.0525 74.1552 28.6581 74.1552 29.3223Z" fill="#285BD4"/>
<path d="M25.1417 20.082H30.8654C32.3892 20.082 33.6394 18.8318 33.6394 17.3081V11.6038C33.6394 10.0801 32.3892 8.82983 30.8654 8.82983H25.1417C23.6179 8.82983 22.3677 10.0801 22.3677 11.6038V17.3276C22.3677 18.8513 23.6179 20.082 25.1417 20.082ZM25.2979 11.7601H30.6896V17.1518H25.2979V11.7601Z" fill="#285BD4"/>
<path d="M77.4956 69.6426H71.1662C69.6425 69.6426 68.3922 70.8928 68.3922 72.4166V78.7264C68.3922 80.2501 69.6425 81.5004 71.1662 81.5004H77.4956C79.0193 81.5004 80.2695 80.2501 80.2695 78.7264V72.397C80.2695 70.8733 79.0388 69.6426 77.4956 69.6426ZM77.3393 78.5701H71.342V72.5728H77.3393V78.5701Z" fill="#285BD4"/>
<path d="M85.2315 57.1987H81.5003C79.9766 57.1987 78.7263 58.449 78.7263 59.9727V63.6844C78.7263 65.2081 79.9766 66.4584 81.5003 66.4584H85.2315C86.7552 66.4584 88.0055 65.2081 88.0055 63.6844V59.9727C88.0055 58.449 86.7552 57.1987 85.2315 57.1987ZM85.0752 63.5281H81.6761V60.129H85.0752V63.5281Z" fill="#285BD4"/>
<path d="M13.1081 9.08379H16.5463C18.07 9.08379 19.3202 7.83354 19.3202 6.30981V2.87164C19.3202 1.3479 18.07 0.0976562 16.5463 0.0976562H13.1081C11.5843 0.0976562 10.3341 1.3479 10.3341 2.87164V6.30981C10.3341 7.85308 11.5843 9.08379 13.1081 9.08379ZM13.2644 3.04745H16.39V6.17306H13.2644V3.04745Z" fill="#285BD4"/>
<path d="M4.10235 20.9025H6.77865C8.30239 20.9025 9.55263 19.6522 9.55263 18.1285V15.4327C9.55263 13.9089 8.30239 12.6587 6.77865 12.6587H4.10235C2.57861 12.6587 1.32837 13.9089 1.32837 15.4327V18.109C1.32837 19.6522 2.57861 20.9025 4.10235 20.9025ZM4.27816 15.6085H6.64191V17.9722H4.27816V15.6085Z" fill="#285BD4"/>
<path d="M79.6445 9.1814H68.1383C67.3374 9.1814 66.6732 9.84559 66.6732 10.6465V22.1527C66.6732 22.9536 67.3374 23.6178 68.1383 23.6178H79.6445C80.4454 23.6178 81.1096 22.9536 81.1096 22.1527V10.6465C81.1096 9.82605 80.4454 9.1814 79.6445 9.1814ZM78.1794 20.668H69.6035V12.1117H78.1794V20.668Z" fill="#285BD4"/>
<path d="M88.8064 17.8551C89.6073 17.8551 90.2715 17.1909 90.2715 16.3899C90.2715 15.589 89.6073 14.9248 88.8064 14.9248H86.9701V10.8615H88.8064C89.6073 10.8615 90.2715 10.1973 90.2715 9.39637C90.2715 8.59543 89.6073 7.93124 88.8064 7.93124H86.9701V7.87263C86.9701 5.35261 84.9189 3.32096 82.4184 3.32096H82.3598V1.46513C82.3598 0.664192 81.6956 0 80.8947 0C80.0938 0 79.4296 0.664192 79.4296 1.46513V3.30143H75.3663V1.46513C75.3663 0.664192 74.7021 0 73.9012 0C73.1002 0 72.436 0.664192 72.436 1.46513V3.30143H68.3727V1.46513C68.3727 0.664192 67.7085 0 66.9076 0C66.1067 0 65.4425 0.664192 65.4425 1.46513V3.30143H65.3839C62.8638 3.30143 60.8322 5.35261 60.8322 7.8531V7.9117H58.9959C58.195 7.9117 57.5308 8.57589 57.5308 9.37683C57.5308 10.1778 58.195 10.842 58.9959 10.842H60.8322V14.9053H58.9959C58.195 14.9053 57.5308 15.5694 57.5308 16.3704C57.5308 17.1713 58.195 17.8355 58.9959 17.8355H60.8322V21.8988H58.9959C58.195 21.8988 57.5308 22.563 57.5308 23.3639C57.5308 24.1649 58.195 24.8291 58.9959 24.8291H60.8322V24.8877C60.8322 27.4077 62.8834 29.4393 65.3839 29.4393H65.4425V31.2756C65.4425 32.0766 66.1067 32.7408 66.9076 32.7408C67.7085 32.7408 68.3727 32.0766 68.3727 31.2756V29.4393H72.436V31.2756C72.436 32.0766 73.1002 32.7408 73.9012 32.7408C74.7021 32.7408 75.3663 32.0766 75.3663 31.2756V29.4393H79.4296V31.2756C79.4296 32.0766 80.0938 32.7408 80.8947 32.7408C81.6956 32.7408 82.3598 32.0766 82.3598 31.2756V29.4393H82.4184C84.9385 29.4393 86.9701 27.3882 86.9701 24.8877V24.8291H88.8064C89.6073 24.8291 90.2715 24.1649 90.2715 23.3639C90.2715 22.563 89.6073 21.8988 88.8064 21.8988H86.9701V17.8551H88.8064ZM84.0398 24.9072C84.0398 25.8058 83.317 26.5286 82.4184 26.5286H65.3643C64.4657 26.5286 63.7429 25.8058 63.7429 24.9072V7.87263C63.7429 6.97402 64.4657 6.25122 65.3643 6.25122H82.4184C83.317 6.25122 84.0398 6.97402 84.0398 7.87263V24.9072Z" fill="#285BD4"/>
</svg>
