<svg width="12" height="12" viewBox="0 0 12 12" fill="none" xmlns="http://www.w3.org/2000/svg">
<path d="M9.48887 7.43356C9.24284 7.17776 8.94609 7.04099 8.63158 7.04099C8.3196 7.04099 8.02031 7.17522 7.76414 7.43102L6.96264 8.22882C6.89669 8.19336 6.83075 8.16044 6.76734 8.12751C6.67603 8.08192 6.58979 8.03887 6.51624 7.99328C5.76547 7.51714 5.08319 6.89663 4.4288 6.09377C4.11176 5.6936 3.8987 5.35676 3.74398 5.01485C3.95196 4.82489 4.14473 4.62735 4.33242 4.43739C4.40344 4.36648 4.47446 4.29303 4.54548 4.22212C5.07811 3.69025 5.07811 3.00136 4.54548 2.4695L3.85304 1.77808C3.77442 1.69957 3.69325 1.61852 3.61716 1.53747C3.46498 1.38045 3.30519 1.21836 3.14032 1.0664C2.8943 0.823259 2.60008 0.694092 2.29064 0.694092C1.9812 0.694092 1.68191 0.823259 1.42827 1.0664C1.42573 1.06893 1.42573 1.06893 1.4232 1.07146L0.56083 1.94017C0.236174 2.26435 0.0510188 2.65945 0.0104368 3.11787C-0.0504362 3.85741 0.167692 4.5463 0.335093 4.99712C0.745986 6.1039 1.35979 7.12964 2.27542 8.22882C3.38635 9.55341 4.72302 10.5994 6.24992 11.3364C6.83329 11.6125 7.61195 11.9392 8.48193 11.9949C8.53519 11.9974 8.59099 12 8.64172 12C9.22762 12 9.71968 11.7898 10.1052 11.3719C10.1077 11.3668 10.1128 11.3643 10.1154 11.3592C10.2472 11.1997 10.3994 11.0553 10.5592 10.9008C10.6683 10.797 10.7799 10.6881 10.8889 10.5741C11.1401 10.3132 11.2719 10.0093 11.2719 9.69777C11.2719 9.38372 11.1375 9.08233 10.8813 8.82906L9.48887 7.43356ZM10.3969 10.1005C10.3944 10.1005 10.3944 10.103 10.3969 10.1005C10.298 10.2068 10.1965 10.3031 10.0875 10.4095C9.92259 10.5665 9.75519 10.7311 9.59793 10.916C9.34176 11.1895 9.03993 11.3187 8.64426 11.3187C8.60621 11.3187 8.56563 11.3187 8.52758 11.3162C7.77428 11.268 7.07424 10.9742 6.54921 10.7235C5.11362 10.0296 3.85305 9.04434 2.80552 7.79573C1.94062 6.7548 1.36232 5.79238 0.979332 4.75905C0.743449 4.12841 0.657212 3.63707 0.695258 3.17359C0.720622 2.87726 0.834759 2.63159 1.04528 2.42138L1.91018 1.55774C2.03446 1.44123 2.16636 1.37792 2.29571 1.37792C2.4555 1.37792 2.58486 1.47416 2.66602 1.5552C2.66856 1.55774 2.67109 1.56027 2.67363 1.5628C2.82835 1.70716 2.97546 1.85659 3.13018 2.01615C3.20881 2.0972 3.28997 2.17824 3.37113 2.26182L4.06356 2.95324C4.33242 3.22171 4.33242 3.46991 4.06356 3.73837C3.99001 3.81182 3.91899 3.88527 3.84544 3.95619C3.63238 4.174 3.42947 4.37661 3.20881 4.57416C3.20373 4.57923 3.19866 4.58176 3.19612 4.58682C2.978 4.80463 3.01858 5.01738 3.06423 5.16174C3.06677 5.16934 3.06931 5.17694 3.07184 5.18454C3.25192 5.62016 3.50556 6.03045 3.89109 6.51926L3.89363 6.52179C4.59367 7.3829 5.33175 8.05406 6.14593 8.5682C6.24992 8.63405 6.35645 8.68723 6.4579 8.73789C6.54921 8.78348 6.63545 8.82653 6.709 8.87212C6.71915 8.87719 6.72929 8.88478 6.73944 8.88985C6.82568 8.9329 6.90684 8.95317 6.99054 8.95317C7.20106 8.95317 7.33295 8.82147 7.37607 8.77841L8.24351 7.91223C8.32975 7.82612 8.46671 7.72228 8.6265 7.72228C8.78376 7.72228 8.91311 7.82106 8.99174 7.90717C8.99428 7.9097 8.99428 7.9097 8.99681 7.91223L10.3944 9.30774C10.6556 9.56608 10.6556 9.83201 10.3969 10.1005Z" fill="black"/>
<path d="M6.48546 2.85454C7.14999 2.96598 7.75365 3.28003 8.23556 3.76124C8.71747 4.24245 9.02944 4.84523 9.14358 5.50879C9.17148 5.67595 9.31606 5.79245 9.48092 5.79245C9.50121 5.79245 9.51897 5.78992 9.53926 5.78738C9.72695 5.75699 9.85123 5.57971 9.82079 5.39229C9.68383 4.58943 9.30337 3.85748 8.72254 3.2775C8.14171 2.69751 7.4087 2.31761 6.60467 2.18085C6.41698 2.15045 6.24197 2.27456 6.209 2.45944C6.17602 2.64433 6.29777 2.82415 6.48546 2.85454Z" fill="black"/>
<path d="M11.9954 5.29345C11.7697 3.97139 11.1457 2.76837 10.187 1.81101C9.22824 0.853661 8.02347 0.230621 6.69948 0.00521263C6.51432 -0.0277122 6.33931 0.0989218 6.30634 0.283808C6.2759 0.471226 6.40019 0.645981 6.58788 0.678906C7.76983 0.878988 8.84779 1.43871 9.70508 2.29222C10.5624 3.14827 11.1204 4.22466 11.3208 5.40489C11.3487 5.57205 11.4932 5.68855 11.6581 5.68855C11.6784 5.68855 11.6961 5.68602 11.7164 5.68348C11.9016 5.65562 12.0284 5.47834 11.9954 5.29345Z" fill="black"/>
</svg>
