<svg width="20" height="20" viewBox="0 0 20 20" fill="none" xmlns="http://www.w3.org/2000/svg">
<path d="M13.5973 7.17375L7.98579 12.1737C7.91384 12.2462 7.91384 12.3187 7.91384 12.3911L7.69802 14.3477C7.69802 14.4201 7.62607 14.4201 7.55413 14.3477L6.69082 11.4491C6.61888 11.3042 6.69082 11.1593 6.83471 11.0868L13.3815 6.95636C13.5973 6.88389 13.7412 7.10128 13.5973 7.17375Z" fill="#285BD4"/>
<path d="M10 0C7.26619 0 4.7482 1.08696 2.94964 2.89855C1.15108 4.71014 0 7.24638 0 10C0 12.7536 1.07914 15.2899 2.94964 17.1014C4.7482 18.913 7.26619 20 10 20C12.7338 20 15.2518 18.913 17.0504 17.1014C18.8489 15.2899 20 12.7536 20 10C19.9281 4.49275 15.4676 0 10 0ZM15.8993 5.72464L13.8849 15.5797C13.8129 16.0145 13.2374 16.2319 12.8777 15.942L9.78417 13.6232L8.20144 15.2174C7.91367 15.5072 7.48202 15.3623 7.33813 15L6.18705 11.3768L3.16547 10.4348C2.73381 10.2899 2.73381 9.78261 3.16547 9.63768L15.1799 4.92754C15.5396 4.85507 16.0432 5.21739 15.8993 5.72464Z" fill="#285BD4"/>
</svg>
