<svg width="20" height="20" viewBox="0 0 20 20" fill="none" xmlns="http://www.w3.org/2000/svg">
<path d="M10 0C7.21429 0 4.71429 1.14286 2.92857 2.92857C1.14286 4.71429 0 7.21429 0 10C0 15.5 4.5 20 10 20C12.7857 20 15.2857 18.8571 17.0714 17.0714C18.8571 15.2857 20 12.7857 20 10C20 4.5 15.5 0 10 0ZM16.2143 13.8571C15.9286 13.9286 14.3571 13.8571 14.2857 13.8571C13.8571 13.8571 13.5 13.7143 13.2143 13.4286C12.8571 13.1429 12.5714 12.7857 12.2857 12.4286C12.2143 12.3571 12.0714 12.2143 12 12.1429C11.7143 11.9286 11.5 12 11.3571 12.2857C11.2857 12.5714 11.1429 13.2143 11.1429 13.2857C11.1429 13.5714 10.9286 13.7857 10.5714 13.7857C9.57143 13.8571 8.64286 13.7143 7.78571 13.2857C7.07143 12.8571 6.42857 12.3571 5.92857 11.6429C5.14286 10.5714 4.5 9.42857 3.85714 8.28572C3.85714 8.21429 3.21429 6.92857 3.21429 6.85714C3.14286 6.64286 3.21429 6.5 3.35714 6.42857C3.57143 6.42857 5.5 6.42857 5.57143 6.42857C5.85714 6.42857 6.07143 6.57143 6.21429 6.92857C6.57143 7.85714 7.07143 8.71429 7.71429 9.5C7.78571 9.57143 7.92857 9.71429 8 9.78571C8.14286 9.85714 8.28571 9.85714 8.35714 9.64286C8.42857 9.42857 8.5 9.07143 8.5 8.85714C8.5 8.35714 8.5 8 8.5 7.42857C8.5 7.07143 8.35714 6.78571 7.85714 6.71429C7.71429 6.71429 7.71429 6.57143 7.78571 6.42857C8 6.14286 8.28571 6.14286 8.57143 6.14286C9.07143 6.14286 9.57143 6.14286 10.0714 6.14286C10.2857 6.14286 10.5 6.14286 10.7143 6.21429C11 6.28571 11.1429 6.42857 11.1429 6.71429C11.1429 6.85714 11.1429 7 11.1429 7.14286C11.1429 7.71429 11.0714 8.28571 11.0714 8.85714C11.0714 9.07143 11.0714 9.28571 11.1429 9.57143C11.2143 9.85714 11.4286 9.92857 11.6429 9.71429C11.9286 9.42857 12.1429 9.14286 12.3571 8.78572C12.7857 8.21429 13.0714 7.57143 13.3571 6.85714C13.5 6.5 13.5714 6.42857 14 6.42857C14.7143 6.42857 15.3571 6.42857 16.0714 6.42857C16.2143 6.42857 16.2857 6.42857 16.4286 6.5C16.6429 6.57143 16.7143 6.71429 16.6429 6.92857C16.5714 7.35714 16.2857 7.78571 16 8.14286C15.5714 8.71429 15.1429 9.35714 14.7143 9.92857C14.6429 10 14.6429 10.0714 14.5714 10.1429C14.4286 10.4286 14.4286 10.5714 14.6429 10.8571C15 11.2143 15.4286 11.6429 15.7857 12C16.0714 12.2857 16.2857 12.5714 16.5 12.9286C16.8571 13.3571 16.7143 13.7857 16.2143 13.8571Z" fill="#285BD4"/>
</svg>
